With: Kevin Costner, Whitney Houston and Gary Kemp

Frank Farmer (Costner) is een voormalig medewerker van de Secret Service. Hij wordt ingehuurd om de populaire zangeres Rachel Marron (Houston) te beschermen, die wordt belaagd door een stalker. Zij is echter niet bereid om haar leventje enigszins aan te passen, dus Frank heeft zijn handen vol om alles in goede banen te leiden. Tussen de werkzaamheden door overtreedt Frank de belangrijkste regel van een bodyguard: wordt nooit verliefd.

A former Secret Service agent takes on the job of bodyguard to a pop singer, whose lifestyle is most unlike a President\'s. 

------------------------ Dutch Friends ------------------------
---------------------------------------------------------------
- Bezoek ook eens mijn vrienden op:  http://www.Film-Test.nl --
----- voor mijn Nederlandse Sync. ondertitels ---- en meer ----
------- http://www.Film-Test.nl ---- voor Films en meer -------
---------------------------------------------------------------

General:

Complete name                    : The Bodyguard\\The Bodyguard.avi
Format                           : AVI
Format/Info                      : Audio Video Interleave
File size                        : 1.84 GiB
Duration                         : 2h 4mn
Overall bit rate                 : 2 120 Kbps

Video:

Format                           : MPEG-4 Visual
Format profile                   : Simple@L3
Format settings, BVOP            : No
Format settings, QPel            : No
Format settings, GMC             : No warppoints
Format settings, Matrix          : Default (H.263)
Codec ID                         : XVID
Codec ID/Hint                    : XviD
Duration                         : 2h 4mn
Bit rate                         : 1 725 Kbps
Width                            : 652 pixels
Height                           : 352 pixels
Display aspect ratio             : 1.852
Frame rate                       : 25.000 fps
Color space                      : YUV
Chroma subsampling               : 4:2:0
Bit depth                        : 8 bits
Scan type                        : Progressive
Compression mode                 : Lossy
Bits/(Pixel*Frame)               : 0.301
Stream size                      : 1.49 GiB (81%)
Writing library                  : XviD 1.1.2 (UTC 2006-11-01)

Audio:

Format                           : AC-3
Format/Info                      : Audio Coding 3
Mode extension                   : CM (complete main)
Codec ID                         : 2000
Duration                         : 2h 4mn
Bit rate mode                    : Constant
Bit rate                         : 384 Kbps
Channel(s)                       : 6 channels
Channel positions                : Front: L C R, Side: L R, LFE
Sampling rate                    : 48.0 KHz
Bit depth                        : 16 bits
Compression mode                 : Lossy
Stream size                      : 341 MiB (18%)
Alignment                        : Aligned on interleaves
Interleave, duration             : 32 ms (0.80 video frame)
Interleave, preload duration     : 128 ms


